<svg width="16" height="18" viewBox="0 0 16 18" fill="none" xmlns="http://www.w3.org/2000/svg">
<path fill-rule="evenodd" clip-rule="evenodd" d="M6.86286 0.308785C7.18322 0.121383 7.54388 0.0159662 7.91356 0.00167598C8.28324 -0.0126142 8.65078 0.0646537 8.98431 0.226779L9.13714 0.308785L14.8629 3.65627C15.1849 3.84451 15.4564 4.10983 15.6537 4.42901C15.851 4.74819 15.968 5.1115 15.9945 5.48712L16 5.65113V12.3479C15.9999 12.7244 15.9087 13.0951 15.7344 13.4276C15.5602 13.7601 15.3081 14.0443 15.0002 14.2553L14.8638 14.3428L9.13714 17.6912C8.81678 17.8786 8.45612 17.984 8.08644 17.9983C7.71676 18.0126 7.34922 17.9353 7.01569 17.7732L6.86286 17.6903L1.13714 14.3446C0.815124 14.1564 0.543582 13.8911 0.34629 13.5719C0.148997 13.2527 0.0319705 12.8894 0.00545809 12.5138L0 12.3498V5.65205C0.000183164 5.27551 0.0914989 4.90475 0.265953 4.57223C0.440406 4.23972 0.692679 3.95559 1.00068 3.74473L1.13714 3.65719L6.86286 0.308785ZM8.22743 1.90467C8.17004 1.87115 8.1061 1.85073 8.04011 1.84484C7.97411 1.83895 7.90764 1.84773 7.84535 1.87058L7.77257 1.90467L2.04685 5.25308C1.98952 5.28664 1.94012 5.33248 1.90209 5.38738C1.86407 5.44229 1.83834 5.50494 1.8267 5.57097L1.81942 5.65205V12.3489C1.81949 12.4159 1.83402 12.4822 1.86198 12.543C1.88995 12.6038 1.93069 12.6577 1.98135 12.7008L2.04685 12.7469L7.77257 16.0963C7.82996 16.1298 7.89389 16.1502 7.95989 16.1561C8.02589 16.162 8.09236 16.1532 8.15465 16.1303L8.22743 16.0963L13.9531 12.7478C14.0106 12.7144 14.0602 12.6686 14.0984 12.6137C14.1366 12.5588 14.1625 12.4961 14.1742 12.43L14.1806 12.3489V5.65205C14.1806 5.58505 14.1662 5.51885 14.1384 5.45806C14.1106 5.39727 14.0701 5.34335 14.0196 5.30007L13.9531 5.25308L8.22743 1.90467ZM8 5.31481C8.96508 5.31481 9.89064 5.70312 10.5731 6.39431C11.2555 7.08551 11.6388 8.02297 11.6388 9.00046C11.6388 9.97795 11.2555 10.9154 10.5731 11.6066C9.89064 12.2978 8.96508 12.6861 8 12.6861C7.03492 12.6861 6.10936 12.2978 5.42695 11.6066C4.74453 10.9154 4.36116 9.97795 4.36116 9.00046C4.36116 8.02297 4.74453 7.08551 5.42695 6.39431C6.10936 5.70312 7.03492 5.31481 8 5.31481ZM8 7.15764C7.51746 7.15764 7.05468 7.35179 6.71347 7.69739C6.37227 8.04298 6.18058 8.51171 6.18058 9.00046C6.18058 9.48921 6.37227 9.95794 6.71347 10.3035C7.05468 10.6491 7.51746 10.8433 8 10.8433C8.48254 10.8433 8.94532 10.6491 9.28652 10.3035C9.62773 9.95794 9.81942 9.48921 9.81942 9.00046C9.81942 8.51171 9.62773 8.04298 9.28652 7.69739C8.94532 7.35179 8.48254 7.15764 8 7.15764Z" fill="#333EA6"/>
</svg>
