<svg width="16" height="14" viewBox="0 0 16 14" fill="none" xmlns="http://www.w3.org/2000/svg">
<path d="M8.03417 1.13498L2.06031 6.96675C1.3814 7.62956 1 8.52847 1 9.46576C1 10.4031 1.3814 11.302 2.06031 11.9648C2.39653 12.293 2.79568 12.5533 3.23498 12.731C3.67427 12.9086 4.1451 13 4.62059 13C5.09608 13 5.56692 12.9086 6.00621 12.731C6.4455 12.5533 6.84466 12.293 7.18088 11.9648L14.2929 5.02282C14.517 4.80402 14.6949 4.54425 14.8162 4.25835C14.9376 3.97245 15 3.66601 15 3.35655C15 3.04709 14.9376 2.74066 14.8162 2.45475C14.6949 2.16885 14.517 1.90908 14.2929 1.69028C14.0687 1.47143 13.8026 1.29784 13.5097 1.1794C13.2168 1.06096 12.9029 1 12.5859 1C12.2688 1 11.9549 1.06096 11.662 1.1794C11.3691 1.29784 11.103 1.47143 10.8789 1.69028L3.7673 8.63263C3.65521 8.74203 3.56629 8.87192 3.50562 9.01487C3.44495 9.15782 3.41373 9.31103 3.41373 9.46576C3.41373 9.6205 3.44495 9.77371 3.50562 9.91666C3.56629 10.0596 3.65521 10.1895 3.7673 10.2989C3.99363 10.5198 4.30056 10.6438 4.62059 10.6438C4.94063 10.6438 5.24756 10.5198 5.47389 10.2989L11.4481 4.46714" stroke="#8D8D8D" stroke-linecap="round" stroke-linejoin="round"/>
</svg>
