<svg width="64" height="64" viewBox="0 0 64 64" fill="none" xmlns="http://www.w3.org/2000/svg">
<path d="M32 64C27.5733 64 23.4133 63.1595 19.52 61.4784C15.6267 59.7973 12.24 57.5179 9.36 54.64C6.48 51.76 4.20053 48.3733 2.5216 44.48C0.842667 40.5867 0.00213333 36.4267 0 32C0 27.5733 0.840534 23.4133 2.5216 19.52C4.20267 15.6267 6.48213 12.24 9.36 9.36C12.24 6.48 15.6267 4.20053 19.52 2.5216C23.4133 0.842667 27.5733 0.00213333 32 0C36.4267 0 40.5867 0.840534 44.48 2.5216C48.3733 4.20267 51.76 6.48213 54.64 9.36C57.52 12.24 59.8005 15.6267 61.4816 19.52C63.1627 23.4133 64.0021 27.5733 64 32C64 36.4267 63.1595 40.5867 61.4784 44.48C59.7973 48.3733 57.5179 51.76 54.64 54.64C51.76 57.52 48.3733 59.8005 44.48 61.4816C40.5867 63.1627 36.4267 64.0021 32 64ZM32 57.6C39.1467 57.6 45.2 55.12 50.16 50.16C55.12 45.2 57.6 39.1467 57.6 32C57.6 29.12 57.1328 26.3467 56.1984 23.68C55.264 21.0133 53.9179 18.56 52.16 16.32L16.32 52.16C18.56 53.92 21.0133 55.2672 23.68 56.2016C26.3467 57.136 29.12 57.6021 32 57.6ZM11.84 47.68L47.68 11.84C45.44 10.08 42.9867 8.73387 40.32 7.8016C37.6533 6.86933 34.88 6.40213 32 6.4C24.8533 6.4 18.8 8.88 13.84 13.84C8.88 18.8 6.4 24.8533 6.4 32C6.4 34.88 6.86613 37.6533 7.7984 40.32C8.73067 42.9867 10.0779 45.44 11.84 47.68Z" fill="#333EA6"/>
</svg>
