<svg width="65" height="55" viewBox="0 0 65 55" fill="none" xmlns="http://www.w3.org/2000/svg">
<path d="M58.5 37.1622V32.7027C58.5 28.5405 54.3636 25.2703 50.2273 25.2703C46.0909 25.2703 41.9545 28.5405 41.9545 32.7027V37.1622C40.1818 37.1622 38.4091 38.9459 38.4091 40.7297V51.1351C38.4091 53.2162 40.1818 55 41.9545 55H58.2045C60.2727 55 62.0455 53.2162 62.0455 51.4324V41.027C62.0455 38.9459 60.2727 37.1622 58.5 37.1622ZM54.6591 37.1622H45.7955V32.7027C45.7955 30.3243 47.8636 28.8378 50.2273 28.8378C52.5909 28.8378 54.6591 30.3243 54.6591 32.7027V37.1622ZM41.3636 22.2973C38.7045 24.3784 36.9318 27.0541 36.3409 30.3243C35.1591 30.9189 33.9773 31.2162 32.5 31.2162C27.4773 31.2162 23.6364 27.3514 23.6364 22.2973C23.6364 17.2432 27.4773 13.3784 32.5 13.3784C37.5227 13.3784 41.3636 17.2432 41.3636 22.2973ZM32.5 44.5946C17.7273 44.5946 5.02273 35.3784 0 22.2973C5.02273 9.21622 17.7273 0 32.5 0C47.2727 0 59.9773 9.21622 65 22.2973C64.4091 23.7838 63.5227 25.2703 62.9318 26.7568C61.75 24.6757 60.2727 22.8919 58.2045 21.7027C53.1818 11.8919 43.4318 5.94595 32.5 5.94595C21.2727 5.94595 11.2273 12.1892 6.5 22.2973C11.5227 32.4054 21.5682 38.6486 32.5 38.6486H32.7955C32.5 39.2432 32.5 40.1351 32.5 40.7297V44.5946Z" fill="#949494"/>
</svg>
