<svg width="31" height="27" viewBox="0 0 31 27" fill="none" xmlns="http://www.w3.org/2000/svg">
<path d="M6.71484 3.85714H10.2863L11.7148 1H18.8577L20.2863 3.85714H23.8577V15.2857H6.71484V3.85714Z" stroke="#F6F6F6" stroke-width="2" stroke-linecap="round" stroke-linejoin="round"/>
<path d="M15.2859 11.7143C16.8638 11.7143 18.143 10.4351 18.143 8.85714C18.143 7.27919 16.8638 6 15.2859 6C13.7079 6 12.4287 7.27919 12.4287 8.85714C12.4287 10.4351 13.7079 11.7143 15.2859 11.7143Z" stroke="#F6F6F6" stroke-width="2" stroke-linecap="round" stroke-linejoin="round"/>
<path d="M15.2857 23.1426C7.39571 23.1426 1 19.9447 1 15.9997C1 14.984 1.42429 14.0176 2.18857 13.1426M15.2857 23.1426L12.4286 20.2854M15.2857 23.1426L12.4286 25.9997M21 22.5483C26.0457 21.4462 29.5714 18.9283 29.5714 15.9997C29.5714 14.984 29.1471 14.0176 28.3829 13.1426" stroke="#F6F6F6" stroke-width="2" stroke-linecap="round" stroke-linejoin="round"/>
</svg>
