<?xml version="1.0" encoding="iso-8859-1"?>
<!-- Uploaded to: SVG Repo, www.svgrepo.com, Generator: SVG Repo Mixer Tools -->
<!DOCTYPE svg PUBLIC "-//W3C//DTD SVG 1.1//EN" "http://www.w3.org/Graphics/SVG/1.1/DTD/svg11.dtd">
<svg fill="#000000" version="1.1" id="Capa_1" xmlns="http://www.w3.org/2000/svg" xmlns:xlink="http://www.w3.org/1999/xlink" 
	 width="800px" height="800px" viewBox="0 0 45.49 45.49" xml:space="preserve"
	>
<g>
	<path d="M13.13,45.417c0.091,0.048,0.192,0.073,0.293,0.073c0.197,0,0.386-0.098,0.506-0.259l14.562-20.077
		c0.152-0.21,0.16-0.495,0.018-0.711l-3.785-5.769l7.916-17.799c0.124-0.279,0.024-0.614-0.23-0.778
		c-0.253-0.164-0.607-0.114-0.805,0.107l-14.94,16.652c-0.157,0.175-0.203,0.42-0.12,0.64l3.09,8.174l-6.799,18.983
		C12.729,44.945,12.857,45.273,13.13,45.417z M20.888,25.875c0.049-0.143,0.047-0.296-0.005-0.431l-3.036-8.034L29.885,3.99
		l-6.442,14.487c-0.088,0.194-0.069,0.419,0.049,0.599l3.733,5.69L15.486,40.954L20.888,25.875z"/>
</g>
</svg>