<svg width="12" height="10" viewBox="0 0 12 10" fill="none" xmlns="http://www.w3.org/2000/svg">
<path d="M1.02002 5.00023C1.02002 5.45147 1.19491 5.88423 1.50622 6.20331C1.81752 6.52238 2.23974 6.70164 2.68 6.70164C3.12025 6.70164 3.54247 6.52238 3.85378 6.20331C4.16509 5.88423 4.33998 5.45147 4.33998 5.00023C4.33998 4.54899 4.16509 4.11623 3.85378 3.79716C3.54247 3.47808 3.12025 3.29883 2.68 3.29883C2.23974 3.29883 1.81752 3.47808 1.50622 3.79716C1.19491 4.11623 1.02002 4.54899 1.02002 5.00023ZM7.65994 5.00023C7.65994 5.45147 7.83483 5.88423 8.14613 6.20331C8.45744 6.52238 8.87966 6.70164 9.31992 6.70164C9.76017 6.70164 10.1824 6.52238 10.4937 6.20331C10.805 5.88423 10.9799 5.45147 10.9799 5.00023C10.9799 4.54899 10.805 4.11623 10.4937 3.79716C10.1824 3.47808 9.76017 3.29883 9.31992 3.29883C8.87966 3.29883 8.45744 3.47808 8.14613 3.79716C7.83483 4.11623 7.65994 4.54899 7.65994 5.00023Z" stroke="white" stroke-linecap="round" stroke-linejoin="round"/>
<path d="M1.02006 5C0.938345 4.36239 1.10717 3.7216 1.50993 3.14065C1.91269 2.5597 2.53551 2.0586 3.31712 1.68665C4.09874 1.3147 5.01222 1.08471 5.96772 1.01931C6.92322 0.953901 7.88782 1.05533 8.76663 1.31362M10.9799 5C11.0617 5.63761 10.8928 6.2784 10.4901 6.85935C10.0873 7.4403 9.46449 7.9414 8.68288 8.31335C7.90126 8.6853 6.98778 8.91529 6.03228 8.98069C5.07678 9.0461 4.11218 8.94467 3.23337 8.68638" stroke="white" stroke-linecap="round" stroke-linejoin="round"/>
</svg>
