<svg width="21" height="21" viewBox="0 0 21 21" fill="none" xmlns="http://www.w3.org/2000/svg">
<path d="M20.5576 18.436C20.8393 18.7177 20.9975 19.0997 20.9975 19.498C20.9975 19.8964 20.8393 20.2784 20.5576 20.5601C20.2759 20.8418 19.8938 21 19.4955 21C19.0971 21 18.715 20.8418 18.4333 20.5601L10.5 12.6247L2.56416 20.5576C2.28247 20.8393 1.90042 20.9975 1.50205 20.9975C1.10368 20.9975 0.72163 20.8393 0.439941 20.5576C0.158252 20.2759 4.1975e-09 19.8939 0 19.4955C-4.1975e-09 19.0972 0.158252 18.7152 0.439941 18.4335L8.37578 10.5006L0.442439 2.56526C0.16075 2.28359 0.00249914 1.90156 0.00249914 1.50321C0.00249914 1.10487 0.16075 0.722836 0.442439 0.441164C0.724129 0.159491 1.10618 0.00124926 1.50455 0.00124926C1.90292 0.00124925 2.28497 0.159491 2.56666 0.441164L10.5 8.37653L18.4358 0.439914C18.7175 0.158242 19.0996 -6.63643e-09 19.4979 0C19.8963 6.63643e-09 20.2784 0.158242 20.5601 0.439914C20.8417 0.721586 21 1.10362 21 1.50196C21 1.90031 20.8417 2.28234 20.5601 2.56401L12.6242 10.5006L20.5576 18.436Z" fill="#F6F6F6"/>
</svg>
