<svg width="36" height="36" viewBox="0 0 36 36" fill="none" xmlns="http://www.w3.org/2000/svg">
<rect width="36" height="36" rx="6" fill="#D9D9D9"/>
<path d="M25.6629 24.0465C25.8775 24.2611 25.9981 24.5521 25.9981 24.8556C25.9981 25.1591 25.8775 25.4502 25.6629 25.6648C25.4483 25.8794 25.1572 26 24.8537 26C24.5502 26 24.2591 25.8794 24.0445 25.6648L18 19.6188L11.9536 25.6629C11.739 25.8775 11.4479 25.9981 11.1444 25.9981C10.8409 25.9981 10.5498 25.8775 10.3352 25.6629C10.1206 25.4483 10 25.1572 10 24.8537C10 24.5502 10.1206 24.2592 10.3352 24.0446L16.3815 18.0005L10.3371 11.9545C10.1225 11.7399 10.0019 11.4488 10.0019 11.1453C10.0019 10.8418 10.1225 10.5507 10.3371 10.3361C10.5517 10.1215 10.8428 10.001 11.1463 10.001C11.4498 10.001 11.7409 10.1215 11.9556 10.3361L18 16.3821L24.0464 10.3352C24.261 10.1206 24.5521 10 24.8556 10C25.1591 10 25.4502 10.1206 25.6648 10.3352C25.8794 10.5498 26 10.8409 26 11.1444C26 11.4479 25.8794 11.7389 25.6648 11.9535L19.6185 18.0005L25.6629 24.0465Z" fill="#8D8D8D"/>
</svg>
