<svg width="21" height="22" viewBox="0 0 21 22" fill="none" xmlns="http://www.w3.org/2000/svg">
<path d="M20.5576 18.8896C20.8393 19.1713 20.9975 19.5533 20.9975 19.9517C20.9975 20.35 20.8393 20.732 20.5576 21.0137C20.2759 21.2954 19.8938 21.4536 19.4955 21.4536C19.0971 21.4536 18.715 21.2954 18.4333 21.0137L10.5 13.0783L2.56416 21.0112C2.28247 21.2929 1.90042 21.4511 1.50205 21.4511C1.10368 21.4511 0.72163 21.2929 0.439941 21.0112C0.158252 20.7295 4.1975e-09 20.3475 0 19.9492C-4.1975e-09 19.5508 0.158252 19.1688 0.439941 18.8871L8.37578 10.9542L0.442439 3.01887C0.16075 2.7372 0.00249914 2.35517 0.00249914 1.95682C0.00249914 1.55848 0.16075 1.17645 0.442439 0.894777C0.724129 0.613105 1.10618 0.454863 1.50455 0.454863C1.90292 0.454863 2.28497 0.613105 2.56666 0.894777L10.5 8.83014L18.4358 0.893527C18.7175 0.611855 19.0996 0.453613 19.4979 0.453613C19.8963 0.453613 20.2784 0.611855 20.5601 0.893527C20.8417 1.1752 21 1.55723 21 1.95557C21 2.35392 20.8417 2.73595 20.5601 3.01762L12.6242 10.9542L20.5576 18.8896Z" fill="white"/>
</svg>
