<svg width="25" height="26" viewBox="0 0 25 26" fill="none" xmlns="http://www.w3.org/2000/svg">
<path d="M4.70212 2.51138e-06H7.42098L4.69432 7.79836H0L3.54024 0.717452C3.64828 0.501835 3.81417 0.320532 4.01937 0.193827C4.22456 0.0671214 4.46096 1.06044e-05 4.70212 2.51138e-06ZM0.0935746 10.3978L7.92785 22.5815L4.62414 10.3978H0.0935746ZM7.31701 10.3978L11.2939 25.0717C11.3644 25.3378 11.5209 25.5732 11.739 25.7411C11.9572 25.909 12.2247 26 12.5 26C12.7753 26 13.0428 25.909 13.261 25.7411C13.4791 25.5732 13.6356 25.3378 13.7061 25.0717L17.6934 10.3978H7.31701ZM20.3863 10.3978L17.0748 22.5763L24.9064 10.3978H20.3837H20.3863ZM25 7.79836H20.3135L17.5842 2.51138e-06H20.2979C20.5395 -0.000472377 20.7764 0.0664107 20.9821 0.193143C21.1878 0.319875 21.3541 0.501439 21.4624 0.717452L25 7.79836ZM17.5608 7.79836H7.44957L10.1736 2.51138e-06H14.8264L17.5608 7.79836Z" fill="#BBBBBB"/>
</svg>
