<svg width="50" height="50" viewBox="0 0 50 50" fill="none" xmlns="http://www.w3.org/2000/svg">
<path d="M25 0C11.1929 0 0 11.1929 0 25C0 38.8071 11.1929 50 25 50C38.807 50 50 38.8071 50 25C50 11.1929 38.807 0 25 0ZM25 5.43213C35.807 5.43213 44.5648 14.1957 44.5648 25C44.5648 35.8044 35.807 44.5648 25 44.5648C14.1929 44.5648 5.43517 35.8044 5.43517 25C5.43521 14.1957 14.1929 5.43213 25 5.43213ZM34.5795 13.1287L20.0897 27.6215L15.39 22.9218L10.7788 27.5299L15.4785 32.2296L20.1202 36.8713L24.7284 32.2601L39.2212 17.7704L34.5795 13.1287Z" fill="#333EA6"/>
</svg>
