<svg width="25" height="8" viewBox="0 0 25 8" fill="none" xmlns="http://www.w3.org/2000/svg">
<path d="M15.7407 4.21291C15.7407 4.85387 15.5507 5.48043 15.1946 6.01337C14.8385 6.54631 14.3323 6.96168 13.7402 7.20696C13.148 7.45225 12.4964 7.51642 11.8678 7.39138C11.2391 7.26634 10.6617 6.95768 10.2085 6.50446C9.75523 6.05123 9.44657 5.47379 9.32153 4.84515C9.19649 4.2165 9.26066 3.5649 9.50595 2.97273C9.75123 2.38056 10.1666 1.87443 10.6995 1.51833C11.2325 1.16223 11.859 0.972168 12.5 0.972168C13.3595 0.972168 14.1838 1.3136 14.7916 1.92136C15.3993 2.52912 15.7407 3.35341 15.7407 4.21291ZM3.24074 0.972168C2.59978 0.972168 1.97322 1.16223 1.44028 1.51833C0.907346 1.87443 0.491972 2.38056 0.246688 2.97273C0.00140416 3.5649 -0.0627733 4.2165 0.0622714 4.84515C0.187316 5.47379 0.495967 6.05123 0.949192 6.50446C1.40242 6.95768 1.97986 7.26634 2.60851 7.39138C3.23715 7.51642 3.88875 7.45225 4.48092 7.20696C5.07309 6.96168 5.57922 6.54631 5.93532 6.01337C6.29142 5.48043 6.48148 4.85387 6.48148 4.21291C6.48148 3.35341 6.14005 2.52912 5.53229 1.92136C4.92453 1.3136 4.10024 0.972168 3.24074 0.972168ZM21.7593 0.972168C21.1183 0.972168 20.4917 1.16223 19.9588 1.51833C19.4259 1.87443 19.0105 2.38056 18.7652 2.97273C18.5199 3.5649 18.4557 4.2165 18.5808 4.84515C18.7058 5.47379 19.0145 6.05123 19.4677 6.50446C19.9209 6.95768 20.4984 7.26634 21.127 7.39138C21.7557 7.51642 22.4073 7.45225 22.9994 7.20696C23.5916 6.96168 24.0977 6.54631 24.4538 6.01337C24.8099 5.48043 25 4.85387 25 4.21291C25 3.78733 24.9162 3.36592 24.7533 2.97273C24.5905 2.57955 24.3517 2.22229 24.0508 1.92136C23.7499 1.62043 23.3926 1.38172 22.9994 1.21885C22.6063 1.05599 22.1848 0.972168 21.7593 0.972168Z" fill="white"/>
</svg>
