<svg width="24" height="24" viewBox="0 0 24 24" fill="none" xmlns="http://www.w3.org/2000/svg">
<path d="M0.670391 24H23.3296C23.5074 24 23.6779 23.9291 23.8036 23.803C23.9294 23.6769 24 23.5058 24 23.3275C24 23.1491 23.9294 22.978 23.8036 22.8519C23.6779 22.7258 23.5074 22.6549 23.3296 22.6549H0.670391C0.492592 22.6549 0.322076 22.7258 0.196353 22.8519C0.0706301 22.978 0 23.1491 0 23.3275C0 23.5058 0.0706301 23.6769 0.196353 23.803C0.322076 23.9291 0.492592 24 0.670391 24ZM8.93229 18.9453C9.49864 18.7863 10.0154 18.4854 10.434 18.071L23.225 5.23908C23.6631 4.79792 23.909 4.20061 23.909 3.57793C23.909 2.95525 23.6631 2.35794 23.225 1.91678L21.9647 0.665873C21.5187 0.238487 20.9256 0 20.3088 0C19.692 0 19.099 0.238487 18.653 0.665873L5.8619 13.4843C5.44805 13.9015 5.15195 14.4213 5.0038 14.9908L4.01162 18.7031C3.96455 18.8727 3.96334 19.0518 4.00811 19.222C4.05288 19.3922 4.14202 19.5474 4.26637 19.6716C4.45615 19.8588 4.71087 19.9648 4.97698 19.9675L8.93229 18.9453ZM9.48201 17.116C9.23483 17.3684 8.92457 17.5496 8.58369 17.6405L7.28313 17.9903L5.94235 16.6452L6.29095 15.3405C6.38473 14.9998 6.56489 14.6893 6.81385 14.4393L7.32335 13.9416L9.99151 16.6183L9.48201 17.116ZM10.9435 15.6633L8.27531 12.9866L17.2988 3.93437L19.9669 6.61105L10.9435 15.6633ZM22.2731 4.29754L20.9189 5.65605L18.2507 2.97938L19.6049 1.60742C19.6981 1.51355 19.8088 1.43907 19.9308 1.38825C20.0527 1.33743 20.1835 1.31127 20.3155 1.31127C20.4476 1.31127 20.5783 1.33743 20.7003 1.38825C20.8222 1.43907 20.933 1.51355 21.0261 1.60742L22.2731 2.87177C22.4601 3.06161 22.565 3.31776 22.565 3.58466C22.565 3.85156 22.4601 4.1077 22.2731 4.29754Z" fill="#DE3B3B"/>
</svg>
