<svg width="12" height="12" viewBox="0 0 12 12" fill="none" xmlns="http://www.w3.org/2000/svg">
<path d="M7.75 5.5C7.94891 5.5 8.13968 5.42098 8.28033 5.28033C8.42098 5.13968 8.5 4.94891 8.5 4.75C8.5 4.55109 8.42098 4.36032 8.28033 4.21967C8.13968 4.07902 7.94891 4 7.75 4C7.55109 4 7.36032 4.07902 7.21967 4.21967C7.07902 4.36032 7 4.55109 7 4.75C7 4.94891 7.07902 5.13968 7.21967 5.28033C7.36032 5.42098 7.55109 5.5 7.75 5.5ZM5 4.75C5 4.94891 4.92098 5.13968 4.78033 5.28033C4.63968 5.42098 4.44891 5.5 4.25 5.5C4.05109 5.5 3.86032 5.42098 3.71967 5.28033C3.57902 5.13968 3.5 4.94891 3.5 4.75C3.5 4.55109 3.57902 4.36032 3.71967 4.21967C3.86032 4.07902 4.05109 4 4.25 4C4.44891 4 4.63968 4.07902 4.78033 4.21967C4.92098 4.36032 5 4.55109 5 4.75ZM3.164 7.565C3.24596 7.50921 3.34668 7.48815 3.44412 7.50642C3.54157 7.52469 3.62782 7.58081 3.684 7.6625L3.6885 7.6685L3.7105 7.698C3.7315 7.725 3.7655 7.766 3.812 7.817C3.9055 7.9185 4.048 8.057 4.241 8.1955C4.625 8.472 5.206 8.75 6 8.75C6.794 8.75 7.375 8.472 7.759 8.1955C7.952 8.057 8.095 7.9185 8.188 7.817C8.23166 7.7695 8.27305 7.71994 8.312 7.6685L8.3155 7.6635C8.37153 7.58128 8.45792 7.52469 8.55567 7.50617C8.65343 7.48765 8.75453 7.50872 8.83675 7.56475C8.91897 7.62078 8.97556 7.70717 8.99408 7.80492C9.0126 7.90268 8.99153 8.00378 8.9355 8.086L8.9345 8.0865V8.0875L8.933 8.089L8.9295 8.094L8.9185 8.1095C8.86297 8.18378 8.80373 8.2552 8.741 8.3235C8.57649 8.50191 8.39422 8.66308 8.197 8.8045C7.712 9.153 6.981 9.5 6 9.5C5.019 9.5 4.288 9.153 3.803 8.8045C3.60578 8.66308 3.42351 8.50191 3.259 8.3235C3.19227 8.2506 3.12951 8.17415 3.071 8.0945L3.067 8.0895L3.066 8.0875L3.0655 8.0865L3.065 8.086C3.00904 8.00378 2.98803 7.9027 3.0066 7.805C3.02517 7.70729 3.08178 7.62096 3.164 7.565ZM6 0C2.6865 0 0 2.6865 0 6C0 9.3135 2.6865 12 6 12C9.3135 12 12 9.3135 12 6C12 2.6865 9.3135 0 6 0ZM0.75 6C0.75 3.1005 3.1005 0.75 6 0.75C8.8995 0.75 11.25 3.1005 11.25 6C11.25 8.8995 8.8995 11.25 6 11.25C3.1005 11.25 0.75 8.8995 0.75 6Z" fill="#8D8D8D"/>
</svg>
