<svg width="20" height="25" viewBox="0 0 20 25" fill="none" xmlns="http://www.w3.org/2000/svg">
<path d="M19.1664 22.5021C19.0569 22.5022 18.9484 22.4808 18.8472 22.4388C18.746 22.3969 18.6542 22.3354 18.5769 22.2578L0.229362 3.92441C0.079563 3.76686 -0.00271587 3.55706 6.84291e-05 3.33976C0.00285273 3.12246 0.0904796 2.91484 0.244266 2.76117C0.398053 2.6075 0.605832 2.51995 0.823302 2.51716C1.04077 2.51438 1.25073 2.5966 1.4084 2.74628L19.7559 21.0797C19.8725 21.1962 19.9518 21.3447 19.984 21.5063C20.0161 21.6679 19.9996 21.8354 19.9365 21.9876C19.8734 22.1398 19.7666 22.2699 19.6295 22.3615C19.4925 22.4531 19.3313 22.502 19.1664 22.5021ZM19.1403 9.7937C19.0941 9.61475 18.9896 9.45623 18.8434 9.34309C18.6971 9.22995 18.5174 9.1686 18.3324 9.1687H12.6609L14.1313 1.12857C14.1339 1.11294 14.1365 1.09784 14.138 1.08221C14.1646 0.873731 14.122 0.662304 14.0168 0.480318C13.9116 0.298333 13.7496 0.155824 13.5556 0.074624C13.3616 -0.00657631 13.1463 -0.0219909 12.9427 0.0307417C12.7392 0.0834742 12.5585 0.201446 12.4284 0.366585L7.60277 6.32806C7.57035 6.36815 7.55395 6.41882 7.55675 6.47029C7.55954 6.52175 7.58132 6.57036 7.61789 6.60671L15.4886 14.4713C15.5092 14.492 15.534 14.5081 15.5613 14.5186C15.5886 14.5291 15.6178 14.5337 15.647 14.5322C15.6762 14.5306 15.7047 14.523 15.7308 14.5097C15.7568 14.4965 15.7798 14.4779 15.7982 14.4552L18.9673 10.5406C19.0525 10.4382 19.1125 10.3174 19.1426 10.1877C19.1726 10.058 19.1719 9.92305 19.1403 9.7937ZM12.3679 18.3974L4.49725 10.5328C4.47659 10.5122 4.45185 10.4961 4.42461 10.4857C4.39737 10.4753 4.36824 10.4707 4.33911 10.4722C4.30998 10.4737 4.28149 10.4813 4.25549 10.4946C4.22948 10.5078 4.20654 10.5263 4.18815 10.5489L1.01695 14.4625C0.931775 14.565 0.871845 14.6861 0.841973 14.816C0.812101 14.9459 0.813118 15.081 0.844942 15.2104C0.891183 15.3893 0.995646 15.5478 1.1419 15.661C1.28815 15.7741 1.4679 15.8355 1.65286 15.8354H7.32548L5.86132 23.875V23.8807C5.82519 24.0902 5.85991 24.3058 5.96001 24.4934C6.06011 24.681 6.21989 24.8299 6.41412 24.9167C6.60835 25.0035 6.82597 25.0231 7.03262 24.9726C7.23928 24.922 7.42319 24.8041 7.55534 24.6375L12.3825 18.676C12.415 18.636 12.4315 18.5854 12.4288 18.5339C12.4261 18.4824 12.4044 18.4338 12.3679 18.3974Z" fill="#F6F6F6"/>
</svg>
