<svg width="24" height="24" viewBox="0 0 24 24" fill="none" xmlns="http://www.w3.org/2000/svg">
<path d="M19.2 17.5272L17.5932 15.9828C17.2117 15.5679 16.738 15.2484 16.2104 15.0501C15.6828 14.8517 15.116 14.7799 14.5557 14.8407C13.9953 14.9014 13.457 15.0928 12.9841 15.3996C12.5113 15.7063 12.117 16.1198 11.8332 16.6068L7.128 24H2.4C1.76348 24 1.15303 23.7471 0.702944 23.2971C0.252856 22.847 0 22.2365 0 21.6V9.6C0 8.96348 0.252856 8.35303 0.702944 7.90294C1.15303 7.45286 1.76348 7.2 2.4 7.2H16.8C17.4365 7.2 18.047 7.45286 18.4971 7.90294C18.9471 8.35303 19.2 8.96348 19.2 9.6V17.5272ZM19.2 20.8296V21.6C19.2 22.2365 18.9471 22.847 18.4971 23.2971C18.047 23.7471 17.4365 24 16.8 24H10.2144L13.9068 17.8152C14.0013 17.6528 14.1327 17.5149 14.2903 17.4126C14.4479 17.3103 14.6273 17.2464 14.8141 17.226C15.0009 17.2057 15.1898 17.2296 15.3657 17.2956C15.5416 17.3617 15.6996 17.4681 15.8268 17.6064L19.2 20.8296ZM7.2 18C8.15478 18 9.07045 17.6207 9.74559 16.9456C10.4207 16.2705 10.8 15.3548 10.8 14.4C10.8 13.4452 10.4207 12.5295 9.74559 11.8544C9.07045 11.1793 8.15478 10.8 7.2 10.8C6.24522 10.8 5.32955 11.1793 4.65442 11.8544C3.97929 12.5295 3.6 13.4452 3.6 14.4C3.6 15.3548 3.97929 16.2705 4.65442 16.9456C5.32955 17.6207 6.24522 18 7.2 18ZM4.8 6V2.4C4.8 1.76348 5.05286 1.15303 5.50294 0.702944C5.95303 0.252856 6.56348 0 7.2 0L21.6 0C22.2365 0 22.847 0.252856 23.2971 0.702944C23.7471 1.15303 24 1.76348 24 2.4V10.512L22.3932 8.7828C21.8022 8.13948 20.9974 7.73302 20.1288 7.6392C19.6896 6.6684 18.768 6 17.7 6H15.396C15.1481 5.29736 14.6883 4.68892 14.0801 4.25855C13.4718 3.82817 12.7451 3.59706 12 3.59706C11.2549 3.59706 10.5282 3.82817 9.91992 4.25855C9.31169 4.68892 8.85192 5.29736 8.604 6H4.8ZM20.4 16.8V10.2144C20.4833 10.2688 20.5594 10.3333 20.6268 10.4064L24 13.9932V14.4C24 15.0365 23.7471 15.647 23.2971 16.0971C22.847 16.5471 22.2365 16.8 21.6 16.8H20.4Z" fill="#333EA6"/>
</svg>
