<svg width="30" height="30" viewBox="0 0 30 30" fill="none" xmlns="http://www.w3.org/2000/svg">
<path d="M29.5927 11.9849L28.3923 11.9929L28.3919 11.931L14.9804 12.0194L15.0197 17.9801L23.4414 17.9246C22.2356 21.4026 18.9505 23.9152 15.059 23.9408C10.1213 23.9734 6.09151 19.9964 6.05895 15.0587C6.0264 10.121 10.0034 6.09129 14.9411 6.05874C17.2203 6.04371 19.2995 6.88987 20.8876 8.28395L25.0748 4.0412C22.397 1.57835 18.8269 0.0721568 14.9018 0.0980366C6.67226 0.152297 0.0439926 6.86855 0.0982525 15.098C0.152512 23.3275 6.86876 29.9558 15.0983 29.9015C23.3277 29.8473 29.956 23.131 29.9018 14.9015C29.8952 13.9024 29.7859 12.9277 29.5927 11.9849Z" fill="#FFC107"/>
<path d="M1.77103 8.15079L6.69067 11.7091C7.99381 8.42047 11.1869 6.08359 14.9414 6.05883C17.2206 6.04381 19.2999 6.88996 20.888 8.28404L25.0751 4.04129C22.3973 1.57845 18.8272 0.0722549 14.9021 0.0981346C9.17832 0.135873 4.23586 3.40004 1.77103 8.15079Z" fill="#FF3D00"/>
<path d="M15.0983 29.9021C18.9474 29.8767 22.4351 28.3806 25.0637 25.9677L20.4258 22.0954C18.9372 23.2385 17.0819 23.9281 15.059 23.9414C11.183 23.9669 7.87569 21.5172 6.61312 18.0764L1.77835 21.8525C4.27641 26.6621 9.30672 29.9403 15.0983 29.9021Z" fill="#4CAF50"/>
<path d="M29.6123 12.0636L28.412 12.0716L28.4116 12.0097L15 12.0981L15.0393 18.0588L23.461 18.0033C22.8819 19.674 21.8192 21.1183 20.4432 22.1743L20.4454 22.1728L25.0833 26.0451C24.7589 26.3438 29.9705 22.4311 29.9214 14.9802C29.9148 13.9811 29.8056 13.0064 29.6123 12.0636Z" fill="#1976D2"/>
</svg>
