<svg width="14" height="10" viewBox="0 0 14 10" fill="none" xmlns="http://www.w3.org/2000/svg">
<path d="M7 0L0 2.68246L7 6.25898L10.334 4.55553L7.20633 3.57836C7.14192 3.60992 7.07143 3.62638 7 3.62654C6.87279 3.62654 6.7508 3.57491 6.66085 3.48299C6.5709 3.39108 6.52037 3.26642 6.52037 3.13643C6.52037 3.00644 6.5709 2.88178 6.66085 2.78987C6.7508 2.69795 6.87279 2.64631 7 2.64631L6.92068 2.90981L7.47636 3.08451C7.47644 3.08508 7.47652 3.08565 7.4766 3.08622L8.29659 3.34246L12.9654 4.81033V5.18238C12.9008 5.22728 12.8479 5.2876 12.8114 5.35813C12.7748 5.42865 12.7556 5.50723 12.7555 5.58704C12.7556 5.66868 12.7757 5.749 12.8139 5.82071C12.852 5.89243 12.9071 5.95326 12.9742 5.99769C12.7558 6.84084 12.7555 8.75385 12.7555 9.50793C13.2352 9.82635 13.2352 9.83799 13.7148 9.50793C13.7148 8.75394 13.7146 6.8413 13.4963 5.99797C13.5633 5.9535 13.6184 5.89261 13.6566 5.82084C13.6948 5.74907 13.7148 5.66869 13.7148 5.587C13.7148 5.50711 13.6957 5.42842 13.6591 5.3578C13.6225 5.28719 13.5696 5.22678 13.505 5.18183V4.40316L11.7266 3.84403L14 2.68246L7 0ZM2.91186 4.88246L2.51847 7.29444C3.30311 7.3993 4.24172 7.86534 5.10457 8.41641C5.59529 8.72984 6.05492 9.07387 6.42822 9.40767C6.65641 9.61168 6.84721 9.80742 7 10C7.15279 9.80738 7.34359 9.61168 7.57178 9.40767C7.94508 9.07387 8.40468 8.72984 8.89543 8.41641C9.75828 7.86534 10.6969 7.3993 11.4815 7.29444L11.0881 4.88246H10.9007L7 6.87549L3.09921 4.88246H2.91186Z" fill="#BBBBBB"/>
</svg>
