<svg width="70" height="70" viewBox="0 0 70 70" fill="none" xmlns="http://www.w3.org/2000/svg">
<path d="M23.8 25.4002C23.3756 25.4002 22.9686 25.2316 22.6686 24.9316C22.3685 24.6315 22.2 24.2245 22.2 23.8002C22.2 23.3758 22.3685 22.9689 22.6686 22.6688C22.9686 22.3688 23.3756 22.2002 23.8 22.2002C24.2243 22.2002 24.6313 22.3688 24.9313 22.6688C25.2314 22.9689 25.4 23.3758 25.4 23.8002C25.4 24.2245 25.2314 24.6315 24.9313 24.9316C24.6313 25.2316 24.2243 25.4002 23.8 25.4002ZM46.2 25.4002C45.7756 25.4002 45.3686 25.2316 45.0686 24.9316C44.7685 24.6315 44.6 24.2245 44.6 23.8002C44.6 23.3758 44.7685 22.9689 45.0686 22.6688C45.3686 22.3688 45.7756 22.2002 46.2 22.2002C46.6243 22.2002 47.0313 22.3688 47.3313 22.6688C47.6314 22.9689 47.8 23.3758 47.8 23.8002C47.8 24.2245 47.6314 24.6315 47.3313 24.9316C47.0313 25.2316 46.6243 25.4002 46.2 25.4002Z" fill="black" stroke="#333EA6" stroke-width="5" stroke-linecap="round" stroke-linejoin="round"/>
<path d="M35 67C52.6736 67 67 52.6736 67 35C67 17.3264 52.6736 3 35 3C17.3264 3 3 17.3264 3 35C3 52.6736 17.3264 67 35 67Z" stroke="#333EA6" stroke-width="5" stroke-linecap="round" stroke-linejoin="round"/>
<path d="M20.6 46.1998C20.6 46.1998 25.4 39.7998 35 39.7998C44.6 39.7998 49.4 46.1998 49.4 46.1998" stroke="#333EA6" stroke-width="5" stroke-linecap="round" stroke-linejoin="round"/>
</svg>
