<svg width="21" height="20" viewBox="0 0 21 20" fill="none" xmlns="http://www.w3.org/2000/svg">
<path d="M10.5263 20C8.18125 17.6222 6.31295 15.7023 4.92135 14.2404C3.52975 12.7785 2.471 11.5632 1.7451 10.5945C1.0192 9.62572 0.546703 8.79789 0.327603 8.11096C0.108503 7.42404 -0.000696656 6.65786 3.34395e-06 5.81242C3.34395e-06 4.19199 0.560003 2.81814 1.68 1.69089C2.8 0.563628 4.165 0 5.775 0C6.5625 0 7.32375 0.145134 8.05875 0.435403C8.79375 0.725671 9.45 1.14417 10.0275 1.69089L8.4 7.39762H11.55L10.6575 16.2484L13.65 6.34082H10.5L12.3638 0.739762C12.8013 0.493175 13.2608 0.308234 13.7424 0.184941C14.224 0.0616468 14.7182 0 15.225 0C16.835 0 18.2 0.563628 19.32 1.69089C20.44 2.81814 21 4.19199 21 5.81242C21 6.65786 20.8862 7.43285 20.6588 8.13738C20.4312 8.84192 19.95 9.68314 19.215 10.661C18.48 11.6382 17.4212 12.8535 16.0387 14.307C14.6562 15.7605 12.8188 17.6581 10.5263 20Z" fill="#FF3D75"/>
</svg>
