<svg width="26" height="26" viewBox="0 0 26 26" fill="none" xmlns="http://www.w3.org/2000/svg">
<path d="M13 0C16.4478 0 19.7544 1.36964 22.1924 3.80761C24.6304 6.24558 26 9.55218 26 13C26 16.4478 24.6304 19.7544 22.1924 22.1924C19.7544 24.6304 16.4478 26 13 26C9.55219 26 6.24558 24.6304 3.80761 22.1924C1.36964 19.7544 0 16.4478 0 13C0 9.55218 1.36964 6.24558 3.80761 3.80761C6.24558 1.36964 9.55219 0 13 0ZM14.9499 7.98143C15.9155 7.98143 16.6992 7.31105 16.6992 6.31755C16.6992 5.32405 15.9136 4.65367 14.9499 4.65367C13.9842 4.65367 13.2043 5.32405 13.2043 6.31755C13.2043 7.31105 13.9842 7.98143 14.9499 7.98143ZM15.2897 18.4308C15.2897 18.2321 15.3584 17.7159 15.3194 17.4225L13.7929 19.1792C13.4773 19.5116 13.0817 19.7419 12.896 19.6806C12.8118 19.6496 12.7413 19.5895 12.6974 19.5112C12.6535 19.4329 12.639 19.3415 12.6565 19.2535L15.2006 11.2163C15.4085 10.1968 14.8366 9.26648 13.624 9.14763C12.3445 9.14763 10.4615 10.4457 9.31569 12.0928C9.31569 12.2897 9.27855 12.7799 9.31755 13.0734L10.8422 11.3148C11.1578 10.9861 11.5255 10.7539 11.7112 10.8171C11.8027 10.8499 11.8777 10.9173 11.9201 11.0048C11.9624 11.0923 11.9688 11.1929 11.9378 11.2851L9.41597 19.2832C9.12442 20.2191 9.67595 21.1365 11.013 21.3445C12.9814 21.3445 14.1439 20.078 15.2916 18.4308H15.2897Z" fill="#BBBBBB"/>
</svg>
