<svg width="7" height="14" viewBox="0 0 7 14" fill="none" xmlns="http://www.w3.org/2000/svg">
<path d="M0.26768 0.299953C0.0962848 0.492071 4.17233e-07 0.752605 4.17233e-07 1.02426C4.17233e-07 1.29591 0.0962848 1.55645 0.26768 1.74857L4.7932 6.81973L0.26768 11.8909C0.101142 12.0841 0.00899118 12.3429 0.0110745 12.6115C0.0131573 12.8801 0.109308 13.1371 0.278817 13.327C0.448326 13.517 0.67763 13.6247 0.917343 13.6271C1.15706 13.6294 1.388 13.5261 1.56042 13.3395L6.73232 7.54404C6.90372 7.35192 7 7.09139 7 6.81973C7 6.54808 6.90372 6.28755 6.73232 6.09543L1.56042 0.299953C1.38898 0.107893 1.15648 0 0.914052 0C0.671627 0 0.439126 0.107893 0.26768 0.299953Z" fill="white"/>
</svg>
