<svg width="30" height="26" viewBox="0 0 30 26" fill="none" xmlns="http://www.w3.org/2000/svg">
<path d="M30 24.8182C30 25.1316 29.8784 25.4322 29.662 25.6539C29.4457 25.8755 29.1522 26 28.8462 26H1.15385C0.847827 26 0.554342 25.8755 0.337954 25.6539C0.121566 25.4322 0 25.1316 0 24.8182C0 24.5047 0.121566 24.2041 0.337954 23.9825C0.554342 23.7609 0.847827 23.6364 1.15385 23.6364H28.8462C29.1522 23.6364 29.4457 23.7609 29.662 23.9825C29.8784 24.2041 30 24.5047 30 24.8182ZM30 2.36364V18.9091C30 19.536 29.7569 20.1372 29.3241 20.5804C28.8913 21.0237 28.3043 21.2727 27.6923 21.2727H2.30769C1.69565 21.2727 1.10868 21.0237 0.675907 20.5804C0.243131 20.1372 0 19.536 0 18.9091V2.36364C0 1.73676 0.243131 1.13556 0.675907 0.692293C1.10868 0.249025 1.69565 0 2.30769 0H27.6923C28.3043 0 28.8913 0.249025 29.3241 0.692293C29.7569 1.13556 30 1.73676 30 2.36364ZM20.1923 10.6364C20.1922 10.4375 20.1432 10.2418 20.0496 10.0675C19.9561 9.89317 19.8211 9.74587 19.6572 9.6392L13.3111 5.50284C13.1366 5.38933 12.9356 5.32589 12.7291 5.31915C12.5225 5.3124 12.318 5.3626 12.1368 5.4645C11.9557 5.5664 11.8046 5.71625 11.6994 5.89841C11.5941 6.08056 11.5385 6.28833 11.5385 6.5V14.7727C11.5385 14.9844 11.5941 15.1922 11.6994 15.3743C11.8046 15.5565 11.9557 15.7063 12.1368 15.8082C12.318 15.9101 12.5225 15.9603 12.7291 15.9536C12.9356 15.9468 13.1366 15.8834 13.3111 15.7699L19.6572 11.6335C19.8211 11.5269 19.9561 11.3796 20.0496 11.2052C20.1432 11.0309 20.1922 10.8353 20.1923 10.6364Z" fill="#BBBBBB"/>
</svg>
