<svg width="64" height="64" viewBox="0 0 64 64" fill="none" xmlns="http://www.w3.org/2000/svg">
<path d="M45.2622 0H18.7378L0 18.7378V45.2622L18.7378 64H45.2622L64 45.2622V18.7378L45.2622 0ZM56.8889 42.3111L42.3111 56.8889H21.6889L7.11111 42.3111V21.6889L21.6889 7.11111H42.3111L56.8889 21.6889V42.3111Z" fill="#DE3B3B"/>
<path d="M32.0001 49.7791C33.9638 49.7791 35.5557 48.1872 35.5557 46.2235C35.5557 44.2598 33.9638 42.668 32.0001 42.668C30.0365 42.668 28.4446 44.2598 28.4446 46.2235C28.4446 48.1872 30.0365 49.7791 32.0001 49.7791Z" fill="#DE3B3B"/>
<path d="M28.4446 14.2227H35.5557V39.1115H28.4446V14.2227Z" fill="#DE3B3B"/>
</svg>
