<svg width="20" height="20" viewBox="0 0 20 20" fill="none" xmlns="http://www.w3.org/2000/svg">
<path d="M14.1444 0H5.85556L0 5.85556V14.1444L5.85556 20H14.1444L20 14.1444V5.85556L14.1444 0ZM17.7778 13.2222L13.2222 17.7778H6.77778L2.22222 13.2222V6.77778L6.77778 2.22222H13.2222L17.7778 6.77778V13.2222Z" fill="#DE3B3B"/>
<path d="M10 15.5562C10.6137 15.5562 11.1111 15.0587 11.1111 14.4451C11.1111 13.8314 10.6137 13.334 10 13.334C9.38638 13.334 8.88892 13.8314 8.88892 14.4451C8.88892 15.0587 9.38638 15.5562 10 15.5562Z" fill="#DE3B3B"/>
<path d="M8.88892 4.44531H11.1111V12.2231H8.88892V4.44531Z" fill="#DE3B3B"/>
</svg>
