<svg width="70" height="70" viewBox="0 0 70 70" fill="none" xmlns="http://www.w3.org/2000/svg">
<path d="M23.8 25.3992C23.3756 25.3992 22.9686 25.2306 22.6686 24.9306C22.3685 24.6305 22.2 24.2236 22.2 23.7992C22.2 23.3749 22.3685 22.9679 22.6686 22.6678C22.9686 22.3678 23.3756 22.1992 23.8 22.1992C24.2243 22.1992 24.6313 22.3678 24.9313 22.6678C25.2314 22.9679 25.4 23.3749 25.4 23.7992C25.4 24.2236 25.2314 24.6305 24.9313 24.9306C24.6313 25.2306 24.2243 25.3992 23.8 25.3992ZM46.2 25.3992C45.7756 25.3992 45.3686 25.2306 45.0686 24.9306C44.7685 24.6305 44.6 24.2236 44.6 23.7992C44.6 23.3749 44.7685 22.9679 45.0686 22.6678C45.3686 22.3678 45.7756 22.1992 46.2 22.1992C46.6243 22.1992 47.0313 22.3678 47.3313 22.6678C47.6314 22.9679 47.8 23.3749 47.8 23.7992C47.8 24.2236 47.6314 24.6305 47.3313 24.9306C47.0313 25.2306 46.6243 25.3992 46.2 25.3992Z" fill="white" stroke="#333EA6" stroke-width="5" stroke-linecap="round" stroke-linejoin="round"/>
<path d="M35 67C52.6736 67 67 52.6736 67 35C67 17.3264 52.6736 3 35 3C17.3264 3 3 17.3264 3 35C3 52.6736 17.3264 67 35 67Z" stroke="#333EA6" stroke-width="5" stroke-linecap="round" stroke-linejoin="round"/>
<path d="M20.5999 46.2008C20.5999 46.2008 25.3999 39.8008 34.9999 39.8008C44.5999 39.8008 49.3999 46.2008 49.3999 46.2008" stroke="#333EA6" stroke-width="5" stroke-linecap="round" stroke-linejoin="round"/>
</svg>
