<svg width="25" height="19" viewBox="0 0 25 19" fill="none" xmlns="http://www.w3.org/2000/svg">
<path d="M11.8177 0.559794C12.0214 0.652163 12.1939 0.800264 12.3149 0.986542C12.436 1.17282 12.5004 1.38946 12.5006 1.6108V17.8157C12.5 18.0368 12.4355 18.2532 12.3145 18.4393C12.1936 18.6254 12.0212 18.7734 11.8178 18.8659C11.6145 18.9584 11.3885 18.9915 11.1667 18.9613C10.945 18.9311 10.7365 18.8388 10.5661 18.6954L5.42524 14.3432H2.7345C2.00926 14.3432 1.31373 14.0587 0.800915 13.5522C0.288098 13.0457 0 12.3587 0 11.6424L0 7.7841C0 6.29324 1.22505 5.08328 2.7345 5.08328H5.4268L10.5661 0.731103C10.7363 0.587424 10.9447 0.49493 11.1665 0.46457C11.3883 0.434211 11.6143 0.467255 11.8177 0.559794ZM10.1567 4.12642L6.62217 7.11892C6.41004 7.29919 6.13947 7.39831 5.85963 7.39826H2.7345C2.63089 7.39826 2.53153 7.43891 2.45827 7.51127C2.38501 7.58363 2.34385 7.68177 2.34385 7.7841V11.6424C2.34385 11.8554 2.51886 12.0282 2.7345 12.0282H5.85963C6.13933 12.0282 6.40966 12.127 6.62217 12.306L10.1567 15.3001V4.12642ZM19.6821 0.981121C19.9019 0.764361 20.1997 0.642608 20.5103 0.642608C20.8208 0.642608 21.1187 0.764361 21.3384 0.981121C22.4993 2.12762 23.4201 3.48872 24.0484 4.98672C24.6766 6.48472 25 8.09028 25 9.71171C25 11.3331 24.6766 12.9387 24.0484 14.4367C23.4201 15.9347 22.4993 17.2958 21.3384 18.4423C21.1162 18.6466 20.8223 18.7579 20.5187 18.7527C20.215 18.7476 19.9253 18.6263 19.7102 18.4145C19.4958 18.2021 19.373 17.9159 19.3678 17.616C19.3626 17.3162 19.4752 17.0259 19.6821 16.8064C20.6254 15.8748 21.3737 14.7689 21.8842 13.5517C22.3947 12.3345 22.6574 11.03 22.6574 9.71248C22.6574 8.395 22.3947 7.09042 21.8842 5.87324C21.3737 4.65606 20.6254 3.55013 19.6821 2.61859C19.4627 2.40156 19.3394 2.10736 19.3394 1.80063C19.3394 1.49389 19.4627 1.19815 19.6821 0.981121ZM18.0258 4.25451L18.0242 4.25606C19.4889 5.70314 20.3117 7.66554 20.3117 9.71171C20.3117 11.7579 19.4889 13.7203 18.0242 15.1674C17.881 15.3197 17.6988 15.4311 17.4968 15.4898C17.2949 15.5484 17.0806 15.5522 16.8767 15.5007C16.6727 15.4492 16.4866 15.3443 16.3379 15.1971C16.1893 15.0499 16.0836 14.8658 16.032 14.6642C15.9797 14.463 15.9834 14.2516 16.0425 14.0523C16.1016 13.8529 16.214 13.673 16.3679 13.5314C16.8758 13.0298 17.2787 12.4343 17.5536 11.779C17.8285 11.1236 17.9699 10.4211 17.9699 9.71171C17.9699 9.00231 17.8285 8.29986 17.5536 7.64446C17.2787 6.98907 16.8758 6.39358 16.3679 5.89198C16.1481 5.67484 16.0246 5.38033 16.0246 5.07325C16.0246 4.76616 16.1481 4.47165 16.3679 4.25451C16.5878 4.03737 16.8859 3.91538 17.1969 3.91538C17.5078 3.91538 17.8059 4.03737 18.0258 4.25451Z" fill="white"/>
</svg>
