<svg width="24" height="24" viewBox="0 0 24 24" fill="none" xmlns="http://www.w3.org/2000/svg">
<path d="M11.4527 17.132C11.5719 15.8853 12.058 14.7018 12.8495 13.7313L10.2831 11.1671C7.48744 13.4216 3.93955 12.674 2.07613 10.9581C0.0246492 9.06861 -0.581847 6.12715 0.595784 3.60797C1.75949 1.11827 4.39978 -0.317895 7.17348 0.0599014C9.81003 0.419478 12.1899 2.51746 12.5575 5.6947H16.0513C16.2854 4.76869 16.826 4.06026 17.725 3.66317C18.3351 3.39248 19.0219 3.34896 19.6613 3.54045C20.9734 3.90914 21.8232 5.18615 21.6972 6.59927C21.5826 7.88538 20.5009 8.95714 19.2 9.11791C17.9677 9.27278 16.4676 8.54827 16.0491 6.85381H12.5521C12.4144 8.13993 11.9499 9.28886 11.15 10.2663L13.7185 12.8305C16.5683 10.5471 20.1189 11.3584 21.9458 13.0572C23.977 14.9456 24.5786 17.8801 23.4053 20.3896C22.2416 22.882 19.6013 24.3198 16.8276 23.9372C14.1841 23.5728 11.8117 21.478 11.4436 18.3024H7.94982C7.71408 19.23 7.17455 19.939 6.27445 20.3355C5.66488 20.6069 4.97819 20.6504 4.33924 20.4582C3.02123 20.0831 2.18007 18.8136 2.3033 17.3973C2.41581 16.1267 3.49647 15.049 4.77536 14.8824C6.02532 14.7216 7.52656 15.4338 7.94821 17.1331L11.4527 17.132ZM4.50854 6.59337C3.68238 5.46802 3.96687 4.17333 4.72714 3.47079C5.11909 3.10545 5.62679 2.88926 6.16175 2.85988C6.69671 2.8305 7.22502 2.9898 7.65461 3.31002C8.65704 4.05544 8.80652 5.16042 8.08644 6.5998C9.19427 7.02711 10.1269 7.81352 10.7353 8.83336C11.8888 6.93258 11.6815 3.99167 9.46553 2.24201C8.45575 1.44687 7.18494 1.05863 5.90329 1.15375C4.62165 1.24886 3.42204 1.82043 2.54064 2.75592C0.709904 4.70171 0.901712 7.43471 1.85271 8.81567C2.48332 7.78142 3.36252 7.04351 4.50854 6.59337ZM22.1591 20.2584C23.2499 18.506 23.1621 15.6878 21.1352 13.8701C19.2064 12.1381 16.2597 12.129 14.2902 13.8798C12.2414 15.7018 12.1942 18.5248 13.2722 20.2637C13.8784 19.2416 14.8126 18.4546 15.9227 18.0307C15.2058 16.6712 15.3247 15.5742 16.2613 14.809C16.6682 14.4743 17.178 14.2899 17.7048 14.2867C18.2317 14.2836 18.7436 14.462 19.1545 14.7918C20.1055 15.5646 20.2292 16.6524 19.5156 18.0286C20.6216 18.456 21.5524 19.242 22.1591 20.261V20.2584ZM17.7239 22.8611C19.0634 22.8349 20.2314 22.3788 21.2258 21.4775C21.3731 21.3441 21.3902 21.239 21.297 21.0686C20.5202 19.6458 19.3275 18.8629 17.7073 18.8715C16.0872 18.8801 14.894 19.663 14.1252 21.0906C14.0351 21.2578 14.0662 21.3516 14.1996 21.4732C15.1988 22.3863 16.3754 22.8418 17.7239 22.8638V22.8611ZM9.95522 9.88851C9.95359 9.86393 9.94982 9.83955 9.94397 9.81563C9.41355 8.49522 7.92196 7.49044 6.52359 7.43256C4.5498 7.35057 3.21893 8.55792 2.67351 9.6972C2.59476 9.86279 2.66602 9.93942 2.76996 10.0348C3.77507 10.9533 4.95431 11.4281 6.31892 11.4185C7.74515 11.4104 8.95118 10.8788 9.95575 9.89119L9.95522 9.88851ZM18.8491 7.98934C19.0811 8.00135 19.3132 7.96606 19.5312 7.8856C19.7492 7.80515 19.9485 7.68121 20.1172 7.52133C20.2858 7.36144 20.4202 7.16893 20.5121 6.9555C20.6041 6.74207 20.6517 6.51217 20.6521 6.27976C20.6525 6.04736 20.6057 5.8173 20.5145 5.60355C20.4232 5.3898 20.2895 5.19684 20.1215 5.03637C19.9534 4.8759 19.7544 4.75128 19.5367 4.67007C19.319 4.58887 19.0871 4.55278 18.855 4.56399C18.4039 4.56759 17.9723 4.74778 17.6525 5.06592C17.3327 5.38407 17.1502 5.81486 17.1442 6.26595C17.1418 6.49155 17.184 6.7154 17.2685 6.92458C17.3531 7.13375 17.4782 7.32408 17.6368 7.48459C17.7953 7.64509 17.9841 7.77258 18.1921 7.85967C18.4002 7.94677 18.6235 7.99176 18.8491 7.99202V7.98934ZM5.14611 16.0077C4.92092 16.0066 4.69773 16.0501 4.48942 16.1357C4.28111 16.2212 4.09179 16.3472 3.93241 16.5063C3.77302 16.6655 3.64671 16.8546 3.56076 17.0628C3.47481 17.271 3.43093 17.4941 3.43164 17.7193C3.43078 18.1741 3.6106 18.6107 3.93152 18.9329C4.25244 19.255 4.68819 19.4365 5.1429 19.4374C5.59761 19.4382 6.03403 19.2584 6.35616 18.9374C6.67829 18.6164 6.85974 18.1806 6.86059 17.7258C6.86208 17.5 6.81878 17.2762 6.73318 17.0673C6.64759 16.8584 6.52141 16.6686 6.36195 16.5088C6.20249 16.349 6.01292 16.2224 5.80422 16.1364C5.59552 16.0504 5.37183 16.0067 5.14611 16.0077ZM6.26427 6.26863C6.92488 6.27238 7.4344 5.77669 7.43065 5.1347C7.42923 4.83141 7.30741 4.5411 7.09199 4.32764C6.87656 4.11419 6.58519 3.99507 6.28195 3.99649C5.97872 3.99791 5.68847 4.11976 5.47506 4.33522C5.26165 4.55069 5.14255 4.84213 5.14397 5.14542C5.14376 5.29276 5.17257 5.43869 5.22877 5.57488C5.28496 5.71108 5.36743 5.83486 5.47147 5.93917C5.5755 6.04348 5.69907 6.12626 5.8351 6.18279C5.97113 6.23932 6.11697 6.26849 6.26427 6.26863ZM17.7095 17.7001C18.3524 17.7001 18.856 17.2135 18.8582 16.5747C18.8598 16.2713 18.7409 15.9796 18.5275 15.7639C18.3141 15.5482 18.0238 15.4261 17.7205 15.4244C17.4171 15.4228 17.1255 15.5418 16.9098 15.7552C16.6941 15.9686 16.5721 16.2589 16.5704 16.5624C16.5688 16.7124 16.5971 16.8612 16.6538 17.0001C16.7105 17.139 16.7943 17.2651 16.9005 17.3711C17.0066 17.4771 17.1328 17.5608 17.2718 17.6173C17.4107 17.6738 17.5595 17.7019 17.7095 17.7001Z" fill="#BBBBBB"/>
</svg>
