<svg width="67" height="64" viewBox="0 0 67 64" fill="none" xmlns="http://www.w3.org/2000/svg">
<path d="M33.5838 64C26.1021 56.391 20.1413 50.2475 15.7015 45.5694C11.2616 40.8912 7.88368 37.0022 5.56771 33.9022C3.25174 30.8023 1.74424 28.1532 1.04521 25.9551C0.346177 23.7569 -0.00222266 21.3052 1.06688e-05 18.5997C1.06688e-05 13.4144 1.78668 9.01805 5.36001 5.41083C8.93334 1.80361 13.2883 0 18.425 0C20.9375 0 23.3663 0.46443 25.7113 1.39329C28.0563 2.32215 30.15 3.66133 31.9925 5.41083L26.8 23.6724H36.85L34.0025 51.9947L43.55 20.2906H33.5L39.4463 2.36724C40.8421 1.57816 42.3083 0.98635 43.8448 0.59181C45.3813 0.19727 46.9581 0 48.575 0C53.7117 0 58.0667 1.80361 61.64 5.41083C65.2133 9.01805 67 13.4144 67 18.5997C67 21.3052 66.6371 23.7851 65.9112 26.0396C65.1854 28.2941 63.65 30.986 61.305 34.1153C58.96 37.2423 55.5821 41.1313 51.1712 45.7824C46.7604 50.4335 40.8979 56.506 33.5838 64Z" fill="#FF3D75"/>
</svg>
