<svg width="20" height="20" viewBox="0 0 20 20" fill="none" xmlns="http://www.w3.org/2000/svg">
<path fill-rule="evenodd" clip-rule="evenodd" d="M10 4.87499e-06C8.4032 -0.00175911 6.85943 0.475244 5.65312 1.34313C4.44681 2.21101 3.65923 3.4113 3.43549 4.72285C3.21176 6.0344 3.56694 7.36884 4.4356 8.48031C5.30426 9.59177 6.62787 10.4054 8.16256 10.7712C5.98173 10.9909 4.11141 11.6303 2.70137 12.7833C0.907762 14.2485 0 16.4318 0 19.2803C0 19.4712 0.0914052 19.6542 0.254108 19.7892C0.416811 19.9242 0.637483 20 0.86758 20C1.09768 20 1.31835 19.9242 1.48105 19.7892C1.64375 19.6542 1.73516 19.4712 1.73516 19.2803C1.73516 16.6742 2.56256 14.9167 3.91963 13.8076C5.27854 12.697 7.30959 12.1212 10 12.1212C12.6904 12.1212 14.7215 12.697 16.0822 13.8076C17.4374 14.9182 18.2648 16.6742 18.2648 19.2803C18.2648 19.4712 18.3562 19.6542 18.5189 19.7892C18.6816 19.9242 18.9023 20 19.1324 20C19.3625 20 19.5832 19.9242 19.7459 19.7892C19.9086 19.6542 20 19.4712 20 19.2803C20 16.4318 19.0922 14.25 17.2968 12.7833C15.8904 11.6318 14.0183 10.9909 11.8374 10.7712C13.367 10.4013 14.6846 9.58641 15.5487 8.47602C16.4129 7.36563 16.7657 6.03408 16.5424 4.72545C16.3192 3.41681 15.5349 2.21875 14.3333 1.35085C13.1317 0.482957 11.5932 0.00337384 10 4.87499e-06ZM5.11415 5.49243C5.11415 4.4175 5.62891 3.38659 6.54519 2.6265C7.46146 1.86641 8.70419 1.4394 10 1.4394C11.2958 1.4394 12.5385 1.86641 13.4548 2.6265C14.3711 3.38659 14.8858 4.4175 14.8858 5.49243C14.8858 6.56736 14.3711 7.59826 13.4548 8.35835C12.5385 9.11844 11.2958 9.54546 10 9.54546C8.70419 9.54546 7.46146 9.11844 6.54519 8.35835C5.62891 7.59826 5.11415 6.56736 5.11415 5.49243Z" fill="#BBBBBB"/>
</svg>
